<?xml version="1.0" standalone="no"?>
<!DOCTYPE svg PUBLIC "-//W3C//DTD SVG 20010904//EN"
 "http://www.w3.org/TR/2001/REC-SVG-20010904/DTD/svg10.dtd">
<svg version="1.0" xmlns="http://www.w3.org/2000/svg"
 width="512.000000pt" height="512.000000pt" viewBox="0 0 512.000000 512.000000"
 preserveAspectRatio="xMidYMid meet">

<g transform="translate(0.000000,512.000000) scale(0.100000,-0.100000)"
fill="#000000" stroke="none">
<path d="M3705 5110 c-109 -22 -202 -76 -284 -166 -92 -101 -133 -210 -132
-354 0 -89 24 -186 58 -238 8 -13 13 -25 11 -27 -2 -2 -31 -18 -66 -37 -149
-79 -249 -201 -281 -339 -6 -24 -11 -144 -11 -266 0 -216 1 -223 22 -243 37
-34 90 -25 113 21 12 22 15 73 15 233 0 183 2 211 21 261 39 105 148 196 289
241 112 35 126 79 56 174 -62 85 -79 142 -74 249 8 143 78 250 206 313 60 30
75 33 157 33 77 0 99 -4 150 -28 79 -37 156 -114 191 -191 23 -50 28 -75 28
-141 1 -100 -19 -160 -79 -240 -25 -33 -45 -69 -45 -80 0 -34 29 -64 73 -75
91 -24 203 -87 255 -145 90 -98 92 -109 92 -520 l0 -355 -29 -32 c-40 -45 -96
-46 -141 -3 l-30 29 0 287 c0 175 -4 298 -10 315 -21 55 -78 71 -118 34 l-22
-21 0 -833 c0 -794 1 -834 18 -849 27 -24 85 -22 108 4 18 20 19 44 22 446 2
395 4 424 20 419 9 -2 32 -7 50 -11 l32 -7 0 -782 c0 -777 0 -784 21 -810 26
-33 79 -36 109 -6 20 20 20 33 20 836 l0 816 24 19 c13 11 36 42 50 71 l26 52
0 371 c0 411 -4 446 -63 543 -17 29 -54 75 -82 103 -48 49 -156 120 -202 134
l-22 6 29 60 c55 116 62 261 21 382 -86 248 -342 398 -596 347z"/>
<path d="M1105 3931 c-75 -22 -108 -39 -172 -90 -65 -51 -128 -146 -154 -233
-30 -96 -24 -226 14 -318 15 -36 23 -66 18 -68 -5 -2 -37 -20 -70 -40 -90 -55
-156 -125 -199 -211 -36 -73 -37 -79 -40 -202 -4 -118 -2 -129 17 -148 28 -28
82 -28 107 0 15 17 20 42 24 132 6 132 26 182 96 247 43 40 176 110 207 110 8
0 26 9 41 21 39 31 35 73 -13 137 -55 73 -75 137 -69 226 17 258 310 393 521
240 83 -61 129 -154 130 -264 0 -74 -16 -122 -70 -202 -45 -66 -49 -88 -25
-126 5 -7 39 -23 76 -37 101 -37 163 -74 211 -127 72 -81 75 -97 75 -463 l0
-322 -25 -23 c-36 -33 -91 -31 -122 5 -23 26 -23 30 -23 294 0 256 -1 269 -21
295 -27 34 -77 36 -107 3 -19 -20 -22 -35 -22 -110 l0 -87 -270 0 -270 0 0 88
c0 80 -2 91 -23 110 -33 31 -80 29 -106 -4 -20 -25 -21 -39 -21 -291 0 -170
-4 -272 -11 -285 -15 -28 -72 -50 -101 -39 -47 18 -56 40 -60 148 -3 90 -6
105 -25 124 -27 27 -75 29 -103 4 -18 -16 -20 -31 -20 -135 0 -109 2 -122 28
-171 46 -89 159 -142 254 -120 l37 9 3 -242 c3 -225 4 -244 25 -281 68 -127
208 -171 337 -107 l56 29 56 -29 c129 -64 269 -20 337 107 21 37 22 56 25 281
l3 242 41 -9 c113 -26 253 64 273 175 4 17 5 186 3 377 l-3 345 -37 76 c-45
90 -132 178 -223 223 -33 17 -61 30 -63 31 -1 1 9 25 22 55 84 186 37 407
-117 545 -123 110 -296 151 -452 105z m405 -1571 l0 -60 -70 -57 c-83 -69
-162 -113 -200 -113 -38 0 -117 44 -200 113 l-70 57 0 60 0 60 270 0 270 0 0
-60z m-402 -344 l52 -26 0 -219 0 -218 -26 -27 c-35 -35 -92 -36 -131 -2 l-28
24 -3 277 -3 277 43 -30 c24 -16 67 -41 96 -56z m397 -443 c-11 -62 -99 -95
-152 -58 -35 25 -43 77 -43 281 l0 191 51 23 c28 13 71 38 97 56 l47 31 3
-246 c2 -135 0 -260 -3 -278z"/>
<path d="M3388 3826 c-36 -27 -38 -61 -38 -535 0 -461 0 -468 -21 -490 -47
-50 -111 -50 -154 1 -25 29 -25 31 -25 213 0 196 -6 225 -47 244 -34 16 -47
14 -77 -10 l-26 -20 0 -214 0 -213 28 -53 c56 -108 197 -165 304 -124 16 6 17
-35 20 -532 l3 -538 28 -57 c51 -104 134 -152 252 -146 60 3 81 9 124 35 l51
32 51 -32 c43 -26 64 -32 124 -35 118 -6 201 42 252 146 27 56 28 61 28 228 0
155 -2 174 -19 193 -13 14 -31 21 -56 21 -63 0 -68 -13 -72 -200 -4 -179 -11
-204 -64 -228 -51 -24 -130 -4 -151 37 -4 9 -10 251 -13 538 -5 521 -5 523
-27 544 -29 29 -77 29 -106 0 -22 -21 -22 -23 -27 -544 -3 -287 -9 -530 -14
-540 -5 -10 -21 -24 -37 -32 -55 -29 -124 -14 -156 34 -17 24 -18 97 -23 1143
-5 1102 -5 1117 -25 1132 -25 19 -64 20 -87 2z"/>
<path d="M2344 1525 c-132 -29 -256 -93 -359 -188 -164 -149 -248 -341 -247
-567 0 -139 23 -235 82 -349 145 -278 426 -438 738 -418 277 18 524 189 642
442 52 111 72 205 72 328 0 168 -47 313 -146 450 -110 155 -294 272 -480 306
-79 15 -226 13 -302 -4z m301 -150 c229 -59 401 -227 460 -450 20 -77 21 -232
1 -307 -91 -342 -452 -543 -786 -439 -189 59 -350 222 -410 416 -33 106 -31
253 4 362 65 202 243 369 444 417 77 19 215 19 287 1z"/>
<path d="M2450 1118 c-18 -20 -20 -35 -21 -167 l0 -146 -77 -60 c-68 -54 -77
-64 -80 -97 -2 -27 3 -43 17 -57 37 -37 71 -27 169 49 50 38 98 80 106 92 13
18 16 54 16 189 0 153 -2 168 -21 193 -27 34 -79 36 -109 4z"/>
<path d="M3830 1120 c-12 -12 -20 -33 -20 -52 0 -29 13 -45 97 -125 l98 -92
-238 -3 c-237 -3 -239 -3 -258 -27 -25 -30 -24 -76 1 -101 19 -19 33 -20 255
-20 129 0 235 -3 235 -7 0 -5 -43 -48 -95 -96 -84 -79 -95 -92 -95 -123 0 -43
30 -74 70 -74 32 0 47 12 268 218 171 161 174 142 -55 356 -155 146 -181 166
-210 166 -20 0 -41 -8 -53 -20z"/>
<path d="M785 840 c-49 -19 -64 -82 -30 -120 17 -19 30 -20 371 -20 350 0 353
0 374 22 34 37 25 90 -21 113 -23 12 -86 15 -351 14 -178 0 -332 -4 -343 -9z"/>
</g>
</svg>
